<mxfile host="app.diagrams.net" modified="2024-07-20T08:02:24.845Z" agent="Mozilla/5.0 (Windows NT 10.0; Win64; x64) AppleWebKit/537.36 (KHTML, like Gecko) Chrome/126.0.0.0 Safari/537.36" version="24.7.2" etag="rRcrPCds0h7cclQSJw_y" type="github">
  <diagram name="Страница — 1" id="xPlG2i1CgKQCxJYiGGcJ">
    <mxGraphModel>
      <root>
        <mxCell id="0" />
        <mxCell id="1" parent="0" />
      </root>
    </mxGraphModel>
  </diagram>
</mxfile>
